<?xml version="1.0" standalone="no"?>
<!DOCTYPE svg PUBLIC "-//W3C//DTD SVG 20010904//EN"
 "http://www.w3.org/TR/2001/REC-SVG-20010904/DTD/svg10.dtd">
<svg version="1.0" xmlns="http://www.w3.org/2000/svg"
 width="260.000000pt" height="260.000000pt" viewBox="0 0 260.000000 260.000000"
 preserveAspectRatio="xMidYMid meet">
<metadata>
Created by potrace 1.11, written by Peter Selinger 2001-2013
</metadata>
<g transform="translate(0.000000,260.000000) scale(0.100000,-0.100000)"
fill="#000000" stroke="none">
<path d="M1365 2544 c-137 -28 -241 -90 -335 -200 -13 -16 -22 -30 -20 -30 3
-1 -2 -10 -12 -20 -13 -16 -42 -74 -54 -109 -22 -65 -31 -122 -30 -183 l1 -72
-30 -1 c-166 -4 -291 -55 -401 -164 -87 -86 -147 -198 -158 -295 -1 -9 -4 -20
-7 -25 -7 -13 -2 -131 6 -175 12 -58 15 -66 40 -125 8 -16 14 -34 13 -39 0 -5
4 -12 9 -15 5 -3 20 -22 33 -41 40 -58 126 -133 192 -167 153 -79 310 -87 474
-22 l51 20 49 -46 c29 -27 85 -64 136 -88 l88 -42 0 -310 c1 -318 3 -340 40
-345 72 -11 76 4 74 346 l-1 291 79 7 c143 12 263 71 366 181 29 30 49 55 45
55 -3 0 1 8 10 18 45 50 86 186 89 297 1 50 7 74 18 85 43 40 124 172 113 184
-4 3 -1 6 6 6 7 0 11 6 8 13 -2 6 0 20 5 30 5 10 12 31 15 45 7 40 11 156 5
167 -3 5 -7 23 -9 40 -12 118 -146 310 -256 370 -21 11 -40 27 -42 36 -10 30
-84 139 -117 172 -127 127 -322 186 -493 151z m160 -103 c0 -1 17 -4 37 -7 20
-2 49 -11 65 -19 15 -8 33 -15 38 -15 23 -1 165 -127 165 -146 0 -8 3 -14 8
-14 4 0 18 -24 31 -52 26 -56 33 -66 71 -87 95 -52 170 -141 208 -244 24 -67
34 -174 20 -222 -9 -29 -17 -60 -21 -80 -7 -28 -71 -125 -106 -160 l-41 -39 2
-86 c3 -144 -40 -252 -138 -346 -83 -79 -202 -126 -304 -121 l-35 2 -1 320 -1
320 37 35 c20 19 78 73 128 119 73 67 92 89 92 111 0 26 -33 60 -59 60 -5 0
-30 -20 -57 -45 -26 -25 -48 -45 -50 -45 -1 0 -21 -18 -43 -40 -22 -22 -42
-40 -44 -40 -2 0 -3 125 -3 278 2 263 -2 307 -28 324 -21 15 -55 8 -70 -14
-14 -20 -16 -85 -16 -516 l0 -493 -82 44 c-46 24 -123 66 -173 92 -49 26 -131
69 -181 96 -51 27 -97 49 -103 49 -7 0 -23 -11 -36 -25 -22 -21 -23 -28 -14
-49 12 -25 18 -29 244 -146 77 -40 145 -76 150 -80 6 -4 52 -29 103 -55 l92
-47 0 -119 0 -120 -57 31 c-32 18 -87 61 -122 97 -58 58 -67 64 -95 59 -16 -4
-32 -10 -36 -14 -13 -18 -75 -42 -155 -60 -31 -7 -116 -6 -155 2 -53 12 -65
14 -70 16 -3 1 -8 2 -12 1 -5 0 -8 4 -8 9 0 6 -7 10 -16 10 -23 0 -94 52 -143
105 -89 97 -134 249 -108 370 4 22 8 48 8 58 0 9 4 17 10 17 5 0 9 8 9 18 0
24 64 119 105 157 54 48 60 52 103 74 86 44 147 52 307 40 42 -3 53 2 63 31 6
16 8 32 4 34 -4 2 -9 17 -10 33 -4 45 -8 62 -15 69 -4 4 -1 14 6 22 10 13 9
14 -2 7 -11 -6 -12 -5 -5 6 5 8 9 26 10 42 1 15 2 28 4 30 1 1 3 10 5 19 8 40
29 94 43 111 8 9 12 17 9 17 -8 0 5 15 66 81 79 85 204 137 317 134 30 -1 55
-3 55 -4z"/>
</g>
</svg>
